<?xml version="1.0" encoding="UTF-8" standalone="no"?>
<!-- Created with Inkscape (http://www.inkscape.org/) -->

<svg
   version="1.1"
   id="svg1"
   width="1733.3333"
   height="1386.6667"
   viewBox="0 0 1733.3333 1386.6667"
   sodipodi:docname="Dax Logo White - Vector.ai.ps"
   xmlns:inkscape="http://www.inkscape.org/namespaces/inkscape"
   xmlns:sodipodi="http://sodipodi.sourceforge.net/DTD/sodipodi-0.dtd"
   xmlns="http://www.w3.org/2000/svg"
   xmlns:svg="http://www.w3.org/2000/svg">
  <defs
     id="defs1" />
  <sodipodi:namedview
     id="namedview1"
     pagecolor="#ffffff"
     bordercolor="#000000"
     borderopacity="0.25"
     inkscape:showpageshadow="2"
     inkscape:pageopacity="0.0"
     inkscape:pagecheckerboard="0"
     inkscape:deskcolor="#d1d1d1">
    <inkscape:page
       x="0"
       y="0"
       inkscape:label="1"
       id="page1"
       width="1733.3333"
       height="1386.6667"
       margin="350.69199 75.693336 398.64801 97.360268"
       bleed="0" />
  </sodipodi:namedview>
  <g
     id="g1"
     inkscape:groupmode="layer"
     inkscape:label="1">
    <path
       id="path1"
       d="m 1731.52,6504.39 c 0,-239.88 2.11,-2319.18 2.11,-2546.13 226.01,-4.52 452.93,-3.01 678.34,16.88 340.53,37.97 658.46,220.59 873.93,485.17 122.35,176.6 200.7,380.91 245,590.66 44.3,323.35 -53.04,659.05 -244.4,921.23 -131.33,193 -325,327.65 -537.15,420.16 -157.1,68.5 -323.46,105.12 -494.78,109.8 -174.23,4.75 -348.87,-0.77 -523.05,2.23 m -989.336,904.96 c 113.257,0 160.179,-5.41 1397.066,-1.5 699.74,31.94 1413.65,-270.32 1868.69,-804.92 612.48,-745.18 656.51,-1751.85 202.51,-2463.56 -99.45,-193.16 -257.06,-343.84 -413.46,-490.9 -403.81,-351.98 -925.75,-577.39 -1465.18,-586.13 -220.79,-2.51 -1592.337,-7.79 -1592.337,-5.25 0,80.89 -6.961,1723.45 -8.739,2761.42 4.52,521.04 -9.652,1070.41 11.45,1590.84"
       style="fill:#ffffff;fill-opacity:1;fill-rule:nonzero;stroke:none"
       transform="matrix(0.13333333,0,0,-0.13333333,0,1386.6667)" />
    <path
       id="path2"
       d="m 5678.95,3994.65 278.76,2525.93 826.04,-1765.09 z m 6753.35,3414.7 H 10637.4 L 9216,6430.48 8760.98,7409.35 H 7620.66 l 733.07,-1572.5 -697.46,-484.19 -961.25,2056.69 H 4965.95 l -461.68,-4352.27 1643.89,5.55 1072.2,759.9 558,-1192.34 h 1153.23 l -848,1804.12 695.75,493.08 1075.05,-2297.2 H 11003.2 L 9666.39,5498.76"
       style="fill:#ffffff;fill-opacity:1;fill-rule:nonzero;stroke:none"
       transform="matrix(0.13333333,0,0,-0.13333333,0,1386.6667)" />
  </g>
</svg>
